<svg width="600" height="400" viewBox="0 0 600 400" fill="none" xmlns="http://www.w3.org/2000/svg">
  <!-- Background -->
  <rect width="600" height="400" rx="20" fill="#F5F8FC"/>
  
  <!-- City Skyline -->
  <rect x="50" y="200" width="40" height="150" fill="#0066CC" opacity="0.8"/>
  <rect x="100" y="150" width="40" height="200" fill="#0066CC" opacity="0.9"/>
  <rect x="150" y="100" width="40" height="250" fill="#0066CC"/>
  <rect x="200" y="180" width="40" height="170" fill="#0066CC" opacity="0.7"/>
  <rect x="250" y="120" width="40" height="230" fill="#0066CC" opacity="0.85"/>
  <rect x="300" y="80" width="40" height="270" fill="#0066CC"/>
  <rect x="350" y="150" width="40" height="200" fill="#0066CC" opacity="0.9"/>
  <rect x="400" y="200" width="40" height="150" fill="#0066CC" opacity="0.8"/>
  <rect x="450" y="170" width="40" height="180" fill="#0066CC" opacity="0.75"/>
  <rect x="500" y="130" width="40" height="220" fill="#0066CC" opacity="0.85"/>
  
  <!-- Support Icons -->
  <circle cx="150" cy="150" r="30" fill="white"/>
  <path d="M140 150C140 144.477 144.477 140 150 140C155.523 140 160 144.477 160 150C160 155.523 155.523 160 150 160V170C160.493 170 169 161.493 169 151C169 140.507 160.493 132 150 132C139.507 132 131 140.507 131 151H140V150Z" fill="#FF9900"/>
  <rect x="145" y="155" width="10" height="20" rx="2" fill="#FF9900"/>
  
  <circle cx="300" cy="130" r="30" fill="white"/>
  <path d="M290 125H310M290 135H310M300 115V145" stroke="#FF9900" stroke-width="4" stroke-linecap="round"/>
  
  <circle cx="450" cy="170" r="30" fill="white"/>
  <path d="M440 170L450 180L460 160" stroke="#FF9900" stroke-width="4" stroke-linecap="round" stroke-linejoin="round"/>
  
  <!-- People Silhouettes -->
  <circle cx="200" cy="300" r="15" fill="#333333"/>
  <rect x="195" y="315" width="10" height="25" fill="#333333"/>
  <rect x="185" y="325" width="30" height="5" fill="#333333"/>
  
  <circle cx="350" cy="320" r="15" fill="#333333"/>
  <rect x="345" y="335" width="10" height="25" fill="#333333"/>
  <rect x="335" y="345" width="30" height="5" fill="#333333"/>
  
  <circle cx="500" cy="310" r="15" fill="#333333"/>
  <rect x="495" y="325" width="10" height="25" fill="#333333"/>
  <rect x="485" y="335" width="30" height="5" fill="#333333"/>
  
  <!-- Connection Lines -->
  <path d="M180 150L220 300" stroke="#FF9900" stroke-width="2" stroke-dasharray="4 4"/>
  <path d="M330 130L370 320" stroke="#FF9900" stroke-width="2" stroke-dasharray="4 4"/>
  <path d="M480 170L520 310" stroke="#FF9900" stroke-width="2" stroke-dasharray="4 4"/>
</svg> 