<svg width="150" height="40" viewBox="0 0 150 40" fill="none" xmlns="http://www.w3.org/2000/svg">
  <path d="M10 30L20 10L30 30" stroke="#0066CC" stroke-width="3" stroke-linecap="round" stroke-linejoin="round"/>
  <path d="M25 30L35 10L45 30" stroke="#0066CC" stroke-width="3" stroke-linecap="round" stroke-linejoin="round"/>
  <path fill="#0066CC" d="M55 15H59V30H55V15ZM55 10H59V14H55V10Z"/>
  <path d="M62 15H66V17C66.6667 16.3333 67.3333 15.8333 68 15.5C68.6667 15.1667 69.3333 15 70 15C71.3333 15 72.3333 15.3333 73 16C73.6667 16.6667 74 17.6667 74 19V30H70V20C70 19.3333 69.8333 18.8333 69.5 18.5C69.1667 18.1667 68.6667 18 68 18C67.3333 18 66.75 18.25 66.25 18.75C65.75 19.25 65.5 20 65.5 21V30H62V15Z" fill="#0066CC"/>
  <path d="M76 15H80V17C80.6667 16.3333 81.3333 15.8333 82 15.5C82.6667 15.1667 83.3333 15 84 15C85.3333 15 86.3333 15.3333 87 16C87.6667 16.6667 88 17.6667 88 19V30H84V20C84 19.3333 83.8333 18.8333 83.5 18.5C83.1667 18.1667 82.6667 18 82 18C81.3333 18 80.75 18.25 80.25 18.75C79.75 19.25 79.5 20 79.5 21V30H76V15Z" fill="#0066CC"/>
  <path d="M90 22.5C90 20.5 90.5833 18.9167 91.75 17.75C92.9167 16.5833 94.5 16 96.5 16C98.5 16 100.083 16.5833 101.25 17.75C102.417 18.9167 103 20.5 103 22.5C103 24.5 102.417 26.0833 101.25 27.25C100.083 28.4167 98.5 29 96.5 29C94.5 29 92.9167 28.4167 91.75 27.25C90.5833 26.0833 90 24.5 90 22.5ZM93 22.5C93 23.8333 93.3333 24.8333 94 25.5C94.6667 26.1667 95.5 26.5 96.5 26.5C97.5 26.5 98.3333 26.1667 99 25.5C99.6667 24.8333 100 23.8333 100 22.5C100 21.1667 99.6667 20.1667 99 19.5C98.3333 18.8333 97.5 18.5 96.5 18.5C95.5 18.5 94.6667 18.8333 94 19.5C93.3333 20.1667 93 21.1667 93 22.5Z" fill="#0066CC"/>
  <path d="M105 15H109V30H105V15ZM105 10H109V14H105V10Z" fill="#0066CC"/>
  <path d="M111 15H115V17C115.667 16.3333 116.333 15.8333 117 15.5C117.667 15.1667 118.333 15 119 15C120.333 15 121.333 15.3333 122 16C122.667 16.6667 123 17.6667 123 19V30H119V20C119 19.3333 118.833 18.8333 118.5 18.5C118.167 18.1667 117.667 18 117 18C116.333 18 115.75 18.25 115.25 18.75C114.75 19.25 114.5 20 114.5 21V30H111V15Z" fill="#0066CC"/>
  <path d="M125 22.5C125 20.5 125.583 18.9167 126.75 17.75C127.917 16.5833 129.5 16 131.5 16C133.5 16 135.083 16.5833 136.25 17.75C137.417 18.9167 138 20.5 138 22.5C138 24.5 137.417 26.0833 136.25 27.25C135.083 28.4167 133.5 29 131.5 29C129.5 29 127.917 28.4167 126.75 27.25C125.583 26.0833 125 24.5 125 22.5ZM128 22.5C128 23.8333 128.333 24.8333 129 25.5C129.667 26.1667 130.5 26.5 131.5 26.5C132.5 26.5 133.333 26.1667 134 25.5C134.667 24.8333 135 23.8333 135 22.5C135 21.1667 134.667 20.1667 134 19.5C133.333 18.8333 132.5 18.5 131.5 18.5C130.5 18.5 129.667 18.8333 129 19.5C128.333 20.1667 128 21.1667 128 22.5Z" fill="#0066CC"/>
  <path d="M140 15H144V30H140V15ZM140 10H144V14H140V10Z" fill="#0066CC"/>
</svg> 